# Blender v2.79 (sub 0) OBJ File: ''
# www.blender.org
mtllib model.mtl
o mesh1.001_mesh1-geometry
v 0.114816 -0.107960 0.027125
v 0.114816 0.116362 0.027125
v 0.114816 0.121639 0.027125
v 0.115713 -0.143913 0.020136
v 0.115713 -0.134696 0.020136
v -0.069090 0.241675 -0.204706
v -0.123920 -0.211465 -0.211755
v -0.069090 -0.211465 -0.204706
v -0.123920 0.241675 -0.211755
v -0.122633 -0.211465 0.211755
v -0.017955 0.241675 -0.183708
v -0.061436 0.241675 -0.233628
v -0.178705 -0.211465 -0.204376
v -0.177463 -0.211465 0.204706
v -0.067848 -0.211465 0.204376
v -0.017955 -0.211465 -0.183708
v -0.124009 0.241675 -0.241673
v -0.178705 0.241675 -0.204376
v -0.177463 0.241675 0.204706
v -0.122633 0.241675 0.211755
v 0.026004 0.241675 -0.150187
v -0.003076 0.241675 -0.209663
v -0.061436 -0.241675 -0.233628
v -0.229709 -0.211465 -0.183066
v -0.228597 -0.211465 0.183708
v -0.228597 0.241675 0.183708
v -0.067848 0.241675 0.204376
v -0.016844 -0.211465 0.183066
v 0.026004 -0.211465 -0.150187
v -0.003076 -0.241675 -0.209663
v -0.186535 0.241675 -0.233252
v -0.124009 -0.241675 -0.241673
v -0.229709 0.241675 -0.183066
v -0.122544 0.241675 0.241673
v -0.185117 0.241675 0.233628
v 0.059790 -0.211465 -0.106437
v 0.047096 0.241675 -0.171409
v 0.047096 -0.241675 -0.171409
v -0.122544 -0.241675 0.241673
v -0.060018 -0.241675 0.233247
v -0.273464 -0.211465 -0.149281
v -0.272557 -0.211465 0.150187
v -0.272557 0.241675 0.150187
v -0.243477 0.241675 0.209663
v -0.060018 0.241675 0.233247
v -0.016844 0.241675 0.183066
v 0.026911 -0.211465 0.149281
v 0.059790 0.241675 -0.106437
v -0.001807 -0.241675 0.208929
v -0.244746 0.241675 -0.208929
v -0.186535 -0.241675 -0.233252
v -0.185117 -0.241675 0.233628
v -0.273464 0.241675 -0.149281
v -0.243477 -0.241675 0.209663
v 0.081100 -0.211465 -0.055428
v 0.060431 -0.211465 0.105321
v 0.085652 0.241675 -0.121470
v 0.048133 -0.241675 0.170372
v -0.001807 0.241675 0.208929
v -0.306984 0.241675 -0.105321
v -0.306343 -0.211465 0.106432
v -0.293649 0.241675 0.171404
v -0.293649 -0.241675 0.171404
v 0.026911 0.241675 0.149281
v 0.081100 0.241675 -0.055428
v 0.060431 0.241675 0.105321
v 0.085652 -0.241675 -0.121470
v 0.048133 0.241675 0.170372
v -0.294685 0.241675 -0.170372
v -0.244746 -0.241675 -0.208929
v -0.306984 -0.211465 -0.105321
v -0.306343 0.241675 0.106432
v 0.088479 -0.211465 -0.000644
v 0.081430 -0.211465 0.054187
v 0.081430 0.241675 0.054187
v 0.088479 0.241675 -0.000644
v 0.109971 0.241675 -0.063259
v 0.086387 -0.241675 0.120200
v -0.327983 0.241675 -0.054187
v -0.327653 -0.211465 0.055428
v -0.327653 0.241675 0.055428
v -0.332205 0.241675 0.121470
v -0.294685 -0.241675 -0.170372
v 0.086387 0.241675 0.120200
v 0.109971 -0.241675 -0.063259
v -0.327983 -0.211465 -0.054187
v -0.332940 0.241675 -0.120205
v -0.332205 -0.241675 0.121470
v 0.110352 0.241675 0.061840
v 0.114816 0.152309 -0.027315
v 0.110352 -0.241675 0.061840
v -0.332940 -0.241675 -0.120205
v -0.335032 0.241675 0.000640
v -0.335032 -0.211465 0.000639
v -0.356523 0.241675 0.063259
v 0.118396 0.241675 -0.000732
v 0.114816 0.116362 -0.027315
v 0.118396 -0.241675 -0.000732
v -0.356904 -0.241675 -0.061840
v -0.356523 -0.241675 0.063259
v 0.115713 0.152309 0.020136
v 0.118396 0.154123 -0.000732
v 0.114816 -0.107960 -0.027316
v 0.157357 0.148836 -0.027315
v 0.118396 -0.145721 -0.000732
v -0.356904 0.241675 -0.061840
v -0.364949 0.241675 0.000732
v 0.165997 0.182408 -0.027315
v 0.114816 -0.143913 -0.027316
v 0.118396 0.119096 -0.000732
v 0.207073 0.159661 -0.027315
v -0.364949 -0.241675 0.000732
v 0.114816 0.116362 0.036490
v 0.116025 0.152309 0.036490
v 0.167205 0.182408 0.036490
v 0.157357 -0.140434 -0.027316
v 0.118396 -0.110694 -0.000732
v 0.157357 0.148836 0.036490
v 0.165997 -0.174011 -0.027316
v 0.116025 -0.143913 0.036489
v 0.277741 0.169793 -0.027315
v 0.222859 0.188509 -0.027315
v 0.207073 -0.151264 -0.027316
v 0.207073 0.159661 0.036490
v 0.167205 -0.174011 0.036489
v 0.277741 -0.161391 -0.027316
v 0.256524 0.147227 -0.027315
v 0.224068 0.188509 0.036490
v 0.157357 -0.140434 0.036489
v 0.207073 -0.151264 0.036489
v 0.222859 -0.180111 -0.027316
v 0.278945 -0.161391 0.036489
v 0.114816 -0.107960 0.036489
v 0.278945 0.169793 0.036490
v 0.323254 0.128777 -0.027315
v 0.256524 -0.138825 -0.027316
v 0.256524 -0.138825 0.036489
v 0.256524 0.147227 0.036490
v 0.224068 -0.180111 0.036489
v 0.298307 0.113391 -0.027315
v 0.323254 -0.120375 -0.027316
v 0.324458 0.128777 0.036490
v 0.353264 0.070984 -0.027315
v 0.298307 -0.104989 -0.027316
v 0.298307 -0.104989 0.036489
v 0.324458 -0.120375 0.036489
v 0.298307 0.113391 0.036490
v 0.326174 0.063210 -0.027315
v 0.353264 -0.062582 -0.027316
v 0.326174 0.063210 0.036490
v 0.354473 0.070984 0.036490
v 0.363740 0.004198 -0.027315
v 0.326174 -0.054808 -0.027316
v 0.354473 -0.062582 0.036489
v 0.335948 0.004198 -0.027315
v 0.335948 0.004198 0.036490
v 0.326174 -0.054808 0.036489
v 0.364949 0.004198 0.036490
vn 0.9919 0.0000 0.1273
vn -0.6069 0.7947 0.0000
vn 1.0000 0.0000 0.0000
vn -0.6069 -0.7947 -0.0000
vn 0.0020 0.7377 0.6751
vn 0.1922 0.6789 0.7086
vn 0.0022 0.6789 0.7342
vn 0.1879 0.6789 -0.7098
vn -0.1727 0.7377 0.6526
vn -0.3358 0.7377 0.5857
vn 0.1767 0.7377 0.6516
vn -0.0020 0.7377 -0.6751
vn -0.1922 0.6789 -0.7086
vn -0.0022 0.6789 -0.7342
vn -0.1879 0.6789 0.7098
vn -0.3652 0.6789 0.6370
vn -0.4759 0.7377 0.4788
vn 0.3652 0.6789 -0.6370
vn 0.3358 0.7377 -0.5857
vn 0.1727 0.7377 -0.6526
vn 0.3652 -0.6789 -0.6370
vn 0.1879 -0.6789 -0.7098
vn -0.0022 -0.6789 -0.7342
vn 0.3690 0.6789 0.6348
vn 0.3393 0.7377 0.5836
vn -0.1767 0.7377 -0.6516
vn -0.3690 0.6789 -0.6348
vn -0.5176 0.6789 0.5208
vn -0.6348 0.6789 0.3691
vn 0.5176 0.6789 -0.5208
vn 0.1922 -0.6789 0.7086
vn 0.5176 0.6789 -0.5207
vn 0.4759 0.7377 -0.4788
vn -0.5836 0.7377 0.3393
vn -0.5207 0.6789 -0.5176
vn 0.5176 -0.6789 -0.5208
vn 0.3690 -0.6789 0.6348
vn -0.1922 -0.6789 -0.7086
vn 0.0022 -0.6789 0.7342
vn 0.5208 0.6789 0.5176
vn 0.4788 0.7377 0.4759
vn -0.1879 -0.6789 0.7098
vn -0.3652 -0.6789 0.6370
vn -0.3393 0.7377 -0.5836
vn 0.6348 0.6789 -0.3690
vn 0.5208 -0.6789 0.5176
vn 0.6348 0.6789 -0.3691
vn -0.5176 0.6789 0.5207
vn -0.4788 0.7377 -0.4759
vn 0.6348 -0.6789 -0.3690
vn -0.3690 -0.6789 -0.6348
vn 0.5857 0.7377 0.3358
vn 0.6370 0.6789 0.3652
vn 0.5836 0.7377 -0.3393
vn -0.5857 0.7377 -0.3358
vn -0.7342 0.6789 0.0022
vn -0.6516 0.7377 0.1767
vn -0.7086 0.6789 0.1922
vn -0.6370 0.6789 -0.3652
vn -0.7098 0.6789 -0.1879
vn -0.6526 0.7377 -0.1727
vn -0.6751 0.7377 0.0020
vn 0.7086 0.6789 -0.1922
vn 0.6370 -0.6789 0.3652
vn 0.6526 0.7377 0.1727
vn -0.6348 0.6789 0.3690
vn -0.5176 -0.6789 0.5207
vn -0.5207 -0.6789 -0.5176
vn 0.7098 0.6789 0.1879
vn 0.6516 0.7377 -0.1767
vn 0.7086 -0.6789 -0.1922
vn 0.7098 -0.6789 0.1879
vn -0.6370 -0.6789 -0.3652
vn 0.7342 0.6789 -0.0022
vn 0.6751 0.7377 -0.0020
vn -0.6348 -0.6789 0.3690
vn 0.9123 0.1557 -0.3787
vn 0.9734 -0.1118 -0.2002
vn -0.7098 -0.6789 -0.1878
vn -0.7086 -0.6789 0.1922
vn 0.9727 0.1137 -0.2023
vn 0.9529 0.2853 0.1027
vn -0.7098 0.6789 -0.1878
vn 0.8882 0.4373 0.1411
vn 0.8337 0.5522 0.0027
vn -0.2374 0.7124 -0.6604
vn 0.2731 -0.5905 -0.7594
vn -0.0103 -0.6471 -0.7623
vn 0.8337 -0.5521 0.0027
vn 0.9111 -0.1577 -0.3807
vn 0.9199 -0.3743 0.1168
vn 0.7342 -0.6789 -0.0022
vn 0.9927 0.0071 0.1202
vn -0.7342 -0.6789 0.0022
vn -0.0686 -0.7996 0.5966
vn 0.2731 0.5905 -0.7594
vn 0.9727 -0.2286 0.0408
vn 0.9969 0.0785 -0.0028
vn 0.9969 -0.0785 -0.0028
vn 0.2731 -0.5905 0.7594
vn -0.2374 -0.7124 -0.6604
vn 0.3755 0.6424 -0.6681
vn -0.6737 0.4033 0.6192
vn -0.0103 0.6471 0.7623
vn -0.0103 0.6471 -0.7623
vn -0.0103 -0.6471 0.7623
vn 0.0810 -0.7448 -0.6623
vn -0.2327 -0.7098 0.6648
vn 0.3755 -0.6424 -0.6681
vn 0.3814 -0.6462 0.6610
vn -0.5867 -0.4425 0.6782
vn -0.2327 0.7098 0.6648
vn 0.3814 0.6462 0.6610
vn 0.0850 0.7458 0.6608
vn -0.2911 0.5824 0.7589
vn 0.0850 -0.7458 0.6607
vn -0.2911 -0.5824 0.7590
vn 0.5924 0.4568 0.6636
vn 0.5834 0.4523 -0.6746
vn -0.5043 0.4234 0.7526
vn -0.2911 0.5824 -0.7589
vn 0.5924 -0.4568 0.6636
vn -0.5043 -0.4234 -0.7526
vn -0.5043 -0.4234 0.7526
vn 0.6972 0.2294 -0.6792
vn -0.6271 -0.2187 -0.7476
vn 0.5834 -0.4523 -0.6746
vn -0.5043 0.4234 -0.7526
vn 0.6972 -0.2294 -0.6792
vn 0.7089 0.2323 0.6659
vn -0.6271 0.2187 -0.7476
vn 0.7089 -0.2323 0.6659
vn -0.6271 -0.2187 0.7476
vn -0.6271 0.2187 0.7476
vn 0.7325 0.0000 -0.6807
vn 0.7452 0.0000 0.6668
vn -0.6662 0.0000 -0.7458
vn -0.6662 0.0000 0.7458
vn 0.0810 0.7448 -0.6623
vn 0.9952 -0.0022 0.0971
vn -0.2911 -0.5824 -0.7590
vn 0.2731 0.5905 0.7594
vn -0.3829 0.7425 0.5496
usemtl material_1_24
s off
f 1//1 4//1 5//1
f 110//2 97//2 2//2
f 2//1 101//1 3//1
f 3//3 1//3 2//3
f 117//4 1//4 103//4
s 1
f 9//5 13//6 7//7
f 12//8 6//9 11//10
f 13//6 9//5 18//11
f 20//12 15//13 10//14
f 8//15 15//13 16//16
f 16//16 21//17 11//10
f 12//8 11//10 22//18
f 14//8 26//19 19//20
f 30//21 12//8 22//18
f 17//14 23//22 32//23
f 12//8 30//21 23//22
f 24//24 18//11 33//25
f 26//19 14//8 25//18
f 26//19 35//15 19//20
f 27//26 28//27 15//13
f 16//16 28//27 29//28
f 36//29 21//17 29//28
f 22//18 21//17 37//30
f 31//13 33//25 18//11
f 32//23 31//13 17//14
f 40//31 23//22 30//21
f 24//24 42//32 25//18
f 25//18 43//33 26//19
f 27//26 34//7 45//6
f 21//17 36//29 48//34
f 29//28 47//35 36//29
f 38//36 22//18 37//30
f 49//37 30//21 38//36
f 31//13 32//23 51//38
f 39//39 23//22 40//31
f 41//40 33//25 53//41
f 41//40 42//32 24//24
f 43//33 25//18 42//32
f 43//33 44//16 26//19
f 52//42 34//7 35//15
f 54//43 35//15 44//16
f 39//39 45//6 34//7
f 27//26 45//6 46//44
f 46//44 47//35 28//27
f 57//45 38//36 37//30
f 49//37 38//36 58//46
f 34//7 52//42 39//39
f 41//40 61//47 42//32
f 43//33 62//48 44//16
f 35//15 54//43 52//42
f 47//35 46//44 64//49
f 38//36 57//45 67//50
f 50//27 51//38 70//51
f 41//40 60//52 71//53
f 71//53 61//47 41//40
f 43//33 61//47 72//54
f 46//44 59//24 64//49
f 66//55 47//35 64//49
f 73//56 65//57 55//58
f 55//58 56//59 74//60
f 75//61 56//59 66//55
f 57//45 65//57 76//62
f 77//63 67//50 57//45
f 58//46 67//50 78//64
f 70//51 69//35 50//27
f 64//49 59//24 68//40
f 69//35 79//65 60//52
f 82//66 63//67 62//48
f 64//49 68//40 66//55
f 55//58 74//60 73//56
f 56//59 75//61 74//60
f 66//55 84//53 75//61
f 69//35 70//51 83//68
f 71//53 79//65 86//69
f 86//69 80//63 71//53
f 72//54 80//63 81//70
f 81//70 82//66 62//48
f 75//61 84//53 76//62
f 78//64 85//71 91//72
f 92//73 69//35 83//68
f 80//63 86//69 94//74
f 94//74 81//70 80//63
f 93//75 82//66 81//70
f 95//58 88//76 82//66
f 96//74 90//77 77//63
f 97//78 85//71 90//77
f 86//69 93//75 94//74
f 87//59 95//58 93//75
f 99//79 87//59 92//73
f 82//66 93//75 95//58
f 88//76 95//58 100//80
f 100//80 92//73 88//76
f 103//81 85//71 97//78
f 91//72 1//82 89//69
f 106//83 95//58 87//59
f 87//59 99//79 106//83
f 100//80 99//79 92//73
f 107//56 100//80 95//58
f 96//74 101//84 102//85
f 108//86 90//77 102//85
f 104//87 90//77 111//88
f 105//89 85//71 109//90
f 4//91 98//92 105//89
f 1//82 91//72 4//91
f 3//93 89//69 1//82
f 95//58 106//83 107//56
f 99//79 100//80 112//94
f 113//95 101//84 3//93
f 116//96 109//90 103//81
f 2//97 117//98 110//99
f 118//100 110//99 104//87
f 119//101 105//89 109//90
f 106//83 112//94 107//56
f 111//88 108//86 121//102
f 117//98 116//96 103//81
f 2//97 1//82 117//98
f 118//100 114//103 113//95
f 116//96 130//104 123//105
f 114//103 118//100 124//106
f 131//107 125//108 119//101
f 119//101 126//109 131//107
f 125//108 132//110 120//111
f 115//112 124//106 134//113
f 115//112 134//113 128//114
f 137//115 123//105 130//104
f 126//109 139//116 131//107
f 132//110 125//108 139//116
f 138//117 142//118 134//113
f 135//119 134//113 142//118
f 145//120 136//121 137//115
f 137//115 132//110 146//122
f 138//117 140//123 147//124
f 143//125 148//126 140//123
f 141//127 144//128 149//129
f 137//115 146//122 145//120
f 147//124 151//130 142//118
f 143//125 142//118 151//130
f 145//120 153//131 144//128
f 154//132 141//127 149//129
f 141//127 154//132 146//122
f 150//133 151//130 147//124
f 153//131 145//120 157//134
f 149//129 153//131 152//135
f 149//129 158//136 154//132
f 145//120 154//132 157//134
f 152//135 153//131 155//137
f 156//138 148//126 155//137
f 157//134 155//137 153//131
f 156//138 158//136 151//130
f 155//137 157//134 156//138
f 157//134 158//136 156//138
f 8//15 6//9 7//7
f 9//5 7//7 6//9
f 8//15 7//7 10//14
f 6//9 8//15 11//10
f 6//9 12//8 9//5
f 10//14 7//7 14//8
f 15//13 8//15 10//14
f 16//16 11//10 8//15
f 12//8 17//14 9//5
f 7//7 13//6 14//8
f 14//8 19//20 10//14
f 9//5 17//14 18//11
f 12//8 23//22 17//14
f 13//6 18//11 24//24
f 14//8 13//6 25//18
f 20//12 10//14 19//20
f 27//26 15//13 20//12
f 28//27 16//16 15//13
f 29//28 21//17 16//16
f 21//17 22//18 11//10
f 17//14 31//13 18//11
f 13//6 24//24 25//18
f 20//12 19//20 34//7
f 27//26 20//12 34//7
f 30//21 22//18 38//36
f 23//22 39//39 32//23
f 24//24 33//25 41//40
f 34//7 19//20 35//15
f 35//15 26//19 44//16
f 46//44 28//27 27//26
f 47//35 29//28 28//27
f 48//34 37//30 21//17
f 31//13 50//27 33//25
f 39//39 52//42 32//23
f 49//37 40//31 30//21
f 36//29 55//58 48//34
f 56//59 36//29 47//35
f 57//45 37//30 48//34
f 33//25 50//27 53//41
f 31//13 51//38 50//27
f 32//23 52//42 51//38
f 40//31 45//6 39//39
f 49//37 59//24 40//31
f 53//41 60//52 41//40
f 42//32 61//47 43//33
f 54//43 44//16 63//67
f 59//24 46//44 45//6
f 65//57 48//34 55//58
f 55//58 36//29 56//59
f 56//59 47//35 66//55
f 65//57 57//45 48//34
f 67//50 58//46 38//36
f 58//46 68//40 49//37
f 50//27 69//35 53//41
f 52//42 54//43 51//38
f 45//6 40//31 59//24
f 59//24 49//37 68//40
f 53//41 69//35 60//52
f 43//33 72//54 62//48
f 62//48 63//67 44//16
f 54//43 63//67 70//51
f 58//46 78//64 68//40
f 51//38 54//43 70//51
f 60//52 79//65 71//53
f 61//47 71//53 80//63
f 61//47 80//63 72//54
f 72//54 81//70 62//48
f 70//51 63//67 83//68
f 76//62 65//57 73//56
f 77//63 57//45 76//62
f 85//71 67//50 77//63
f 85//71 78//64 67//50
f 84//53 68//40 78//64
f 69//35 87//59 79//65
f 88//76 63//67 82//66
f 63//67 88//76 83//68
f 84//53 66//55 68//40
f 73//56 74//60 76//62
f 75//61 76//62 74//60
f 77//63 76//62 89//69
f 85//71 77//63 90//77
f 78//64 91//72 84//53
f 79//65 93//75 86//69
f 79//65 87//59 93//75
f 87//59 69//35 92//73
f 83//68 88//76 92//73
f 89//69 76//62 84//53
f 96//74 77//63 89//69
f 98//92 91//72 85//71
f 89//69 84//53 91//72
f 93//75 81//70 94//74
f 96//74 89//69 101//84
f 102//85 90//77 96//74
f 90//77 102//85 97//78
f 2//97 97//78 90//77
f 97//78 90//77 104//87
f 98//92 85//71 105//89
f 98//92 4//91 91//72
f 3//93 101//84 89//69
f 103//81 109//90 85//71
f 97//78 110//99 103//81
f 97//78 102//85 110//99
f 90//77 3//93 2//97
f 97//78 104//87 110//99
f 99//79 112//94 106//83
f 112//94 100//80 107//56
f 90//77 101//84 3//93
f 101//84 114//103 102//85
f 101//84 110//99 102//85
f 108//86 111//88 90//77
f 108//86 102//85 115//112
f 4//91 109//90 103//81
f 117//98 109//90 103//81
f 117//98 103//81 110//99
f 110//99 118//100 2//97
f 101//84 2//97 110//99
f 104//87 111//88 118//100
f 105//89 109//90 117//98
f 4//91 105//89 120//111
f 105//89 117//98 4//91
f 114//103 101//84 113//95
f 115//112 102//85 114//103
f 108//86 115//112 122//139
f 5//140 4//91 103//81
f 116//96 123//105 109//90
f 113//95 2//97 118//100
f 124//106 118//100 111//88
f 119//101 125//108 105//89
f 109//90 126//109 119//101
f 125//108 120//111 105//89
f 117//98 5//140 4//91
f 5//140 120//111 1//82
f 1//82 5//140 117//98
f 103//81 1//82 5//140
f 115//112 114//103 124//106
f 122//139 121//102 108//86
f 111//88 121//102 127//141
f 128//114 122//139 115//112
f 117//98 1//82 129//142
f 129//142 116//96 117//98
f 123//105 126//109 109//90
f 111//88 127//141 124//106
f 133//143 1//82 120//111
f 122//139 128//114 121//102
f 121//102 135//119 127//141
f 133//143 129//142 1//82
f 129//142 130//104 116//96
f 123//105 136//121 126//109
f 138//117 124//106 127//141
f 139//116 125//108 131//107
f 130//104 120//111 132//110
f 133//143 120//111 129//142
f 124//106 138//117 134//113
f 134//113 121//102 128//114
f 127//141 135//119 140//123
f 121//102 134//113 135//119
f 129//142 120//111 130//104
f 141//127 126//109 136//121
f 136//121 123//105 137//115
f 130//104 132//110 137//115
f 127//141 140//123 138//117
f 132//110 139//116 126//109
f 135//119 143//125 140//123
f 144//128 141//127 136//121
f 126//109 141//127 132//110
f 138//117 147//124 142//118
f 135//119 142//118 143//125
f 144//128 136//121 145//120
f 146//122 132//110 141//127
f 147//124 140//123 150//133
f 143//125 152//135 148//126
f 148//126 150//133 140//123
f 153//131 149//129 144//128
f 154//132 145//120 146//122
f 148//126 152//135 155//137
f 143//125 151//130 152//135
f 150//133 148//126 156//138
f 150//133 156//138 151//130
f 158//136 152//135 151//130
f 152//135 158//136 149//129
f 158//136 157//134 154//132
